<svg xmlns="http://www.w3.org/2000/svg" width="169" height="169" viewBox="0 0 169 169">
  <g id="Group_17" data-name="Group 17" transform="translate(-1390 -1692)">
    <rect id="Rectangle_18" data-name="Rectangle 18" width="169" height="169" transform="translate(1390 1692)" fill="#e7694c"/>
    <g id="Group_12" data-name="Group 12" transform="translate(876.138 1065.532)">
      <circle id="Ellipse_1" data-name="Ellipse 1" cx="2" cy="2" r="2" transform="translate(513.862 626.468)" fill="#fff"/>
      <circle id="Ellipse_1-2" data-name="Ellipse 1" cx="2" cy="2" r="2" transform="translate(520.862 626.468)" fill="#fff"/>
      <circle id="Ellipse_1-3" data-name="Ellipse 1" cx="2" cy="2" r="2" transform="translate(527.862 626.468)" fill="#fff"/>
      <circle id="Ellipse_1-4" data-name="Ellipse 1" cx="2" cy="2" r="2" transform="translate(534.862 626.468)" fill="#fff"/>
      <circle id="Ellipse_1-5" data-name="Ellipse 1" cx="2" cy="2" r="2" transform="translate(541.862 626.468)" fill="#fff"/>
      <circle id="Ellipse_1-6" data-name="Ellipse 1" cx="2" cy="2" r="2" transform="translate(548.862 626.468)" fill="#fff"/>
      <circle id="Ellipse_1-7" data-name="Ellipse 1" cx="2" cy="2" r="2" transform="translate(555.862 626.468)" fill="#fff"/>
      <circle id="Ellipse_1-8" data-name="Ellipse 1" cx="2" cy="2" r="2" transform="translate(562.862 626.468)" fill="#fff"/>
      <ellipse id="Ellipse_1-9" data-name="Ellipse 1" cx="2" cy="2.5" rx="2" ry="2.5" transform="translate(513.862 632.468)" fill="#fff"/>
      <ellipse id="Ellipse_1-10" data-name="Ellipse 1" cx="2" cy="2.5" rx="2" ry="2.5" transform="translate(520.862 632.468)" fill="#fff"/>
      <ellipse id="Ellipse_1-11" data-name="Ellipse 1" cx="2" cy="2.5" rx="2" ry="2.5" transform="translate(527.862 632.468)" fill="#fff"/>
      <ellipse id="Ellipse_1-12" data-name="Ellipse 1" cx="2" cy="2.5" rx="2" ry="2.5" transform="translate(534.862 632.468)" fill="#fff"/>
      <ellipse id="Ellipse_1-13" data-name="Ellipse 1" cx="2" cy="2.5" rx="2" ry="2.5" transform="translate(541.862 632.468)" fill="#fff"/>
      <ellipse id="Ellipse_1-14" data-name="Ellipse 1" cx="2" cy="2.5" rx="2" ry="2.5" transform="translate(548.862 632.468)" fill="#fff"/>
      <ellipse id="Ellipse_1-15" data-name="Ellipse 1" cx="2" cy="2.5" rx="2" ry="2.5" transform="translate(555.862 632.468)" fill="#fff"/>
      <ellipse id="Ellipse_1-16" data-name="Ellipse 1" cx="2" cy="2.5" rx="2" ry="2.5" transform="translate(562.862 632.468)" fill="#fff"/>
      <circle id="Ellipse_1-17" data-name="Ellipse 1" cx="2" cy="2" r="2" transform="translate(513.862 639.468)" fill="#fff"/>
      <circle id="Ellipse_1-18" data-name="Ellipse 1" cx="2" cy="2" r="2" transform="translate(520.862 639.468)" fill="#fff"/>
      <circle id="Ellipse_1-19" data-name="Ellipse 1" cx="2" cy="2" r="2" transform="translate(527.862 639.468)" fill="#fff"/>
      <circle id="Ellipse_1-20" data-name="Ellipse 1" cx="2" cy="2" r="2" transform="translate(534.862 639.468)" fill="#fff"/>
      <circle id="Ellipse_1-21" data-name="Ellipse 1" cx="2" cy="2" r="2" transform="translate(541.862 639.468)" fill="#fff"/>
      <circle id="Ellipse_1-22" data-name="Ellipse 1" cx="2" cy="2" r="2" transform="translate(548.862 639.468)" fill="#fff"/>
      <circle id="Ellipse_1-23" data-name="Ellipse 1" cx="2" cy="2" r="2" transform="translate(555.862 639.468)" fill="#fff"/>
      <circle id="Ellipse_1-24" data-name="Ellipse 1" cx="2" cy="2" r="2" transform="translate(562.862 639.468)" fill="#fff"/>
      <circle id="Ellipse_1-25" data-name="Ellipse 1" cx="2" cy="2" r="2" transform="translate(513.862 646.468)" fill="#fff"/>
      <circle id="Ellipse_1-26" data-name="Ellipse 1" cx="2" cy="2" r="2" transform="translate(520.862 646.468)" fill="#fff"/>
      <circle id="Ellipse_1-27" data-name="Ellipse 1" cx="2" cy="2" r="2" transform="translate(527.862 646.468)" fill="#fff"/>
      <circle id="Ellipse_1-28" data-name="Ellipse 1" cx="2" cy="2" r="2" transform="translate(534.862 646.468)" fill="#fff"/>
      <circle id="Ellipse_1-29" data-name="Ellipse 1" cx="2" cy="2" r="2" transform="translate(541.862 646.468)" fill="#fff"/>
      <circle id="Ellipse_1-30" data-name="Ellipse 1" cx="2" cy="2" r="2" transform="translate(548.862 646.468)" fill="#fff"/>
      <circle id="Ellipse_1-31" data-name="Ellipse 1" cx="2" cy="2" r="2" transform="translate(555.862 646.468)" fill="#fff"/>
      <circle id="Ellipse_1-32" data-name="Ellipse 1" cx="2" cy="2" r="2" transform="translate(562.862 646.468)" fill="#fff"/>
      <circle id="Ellipse_1-33" data-name="Ellipse 1" cx="2" cy="2" r="2" transform="translate(513.862 653.468)" fill="#fff"/>
      <circle id="Ellipse_1-34" data-name="Ellipse 1" cx="2" cy="2" r="2" transform="translate(520.862 653.468)" fill="#fff"/>
      <circle id="Ellipse_1-35" data-name="Ellipse 1" cx="2" cy="2" r="2" transform="translate(527.862 653.468)" fill="#fff"/>
      <circle id="Ellipse_1-36" data-name="Ellipse 1" cx="2" cy="2" r="2" transform="translate(534.862 653.468)" fill="#fff"/>
      <circle id="Ellipse_1-37" data-name="Ellipse 1" cx="2" cy="2" r="2" transform="translate(541.862 653.468)" fill="#fff"/>
      <circle id="Ellipse_1-38" data-name="Ellipse 1" cx="2" cy="2" r="2" transform="translate(548.862 653.468)" fill="#fff"/>
      <circle id="Ellipse_1-39" data-name="Ellipse 1" cx="2" cy="2" r="2" transform="translate(555.862 653.468)" fill="#fff"/>
      <circle id="Ellipse_1-40" data-name="Ellipse 1" cx="2" cy="2" r="2" transform="translate(562.862 653.468)" fill="#fff"/>
      <circle id="Ellipse_1-41" data-name="Ellipse 1" cx="2" cy="2" r="2" transform="translate(513.862 660.468)" fill="#fff"/>
      <circle id="Ellipse_1-42" data-name="Ellipse 1" cx="2" cy="2" r="2" transform="translate(520.862 660.468)" fill="#fff"/>
      <circle id="Ellipse_1-43" data-name="Ellipse 1" cx="2" cy="2" r="2" transform="translate(527.862 660.468)" fill="#fff"/>
      <circle id="Ellipse_1-44" data-name="Ellipse 1" cx="2" cy="2" r="2" transform="translate(534.862 660.468)" fill="#fff"/>
      <circle id="Ellipse_1-45" data-name="Ellipse 1" cx="2" cy="2" r="2" transform="translate(541.862 660.468)" fill="#fff"/>
      <circle id="Ellipse_1-46" data-name="Ellipse 1" cx="2" cy="2" r="2" transform="translate(548.862 660.468)" fill="#fff"/>
      <circle id="Ellipse_1-47" data-name="Ellipse 1" cx="2" cy="2" r="2" transform="translate(555.862 660.468)" fill="#fff"/>
      <circle id="Ellipse_1-48" data-name="Ellipse 1" cx="2" cy="2" r="2" transform="translate(562.862 674.468)" fill="#fff"/>
      <ellipse id="Ellipse_1-49" data-name="Ellipse 1" cx="2" cy="2.5" rx="2" ry="2.5" transform="translate(513.862 667.468)" fill="#fff"/>
      <ellipse id="Ellipse_1-50" data-name="Ellipse 1" cx="2" cy="2.5" rx="2" ry="2.5" transform="translate(520.862 667.468)" fill="#fff"/>
      <ellipse id="Ellipse_1-51" data-name="Ellipse 1" cx="2" cy="2.5" rx="2" ry="2.5" transform="translate(527.862 667.468)" fill="#fff"/>
      <circle id="Ellipse_1-52" data-name="Ellipse 1" cx="2" cy="2" r="2" transform="translate(534.862 682.468)" fill="#fff"/>
      <ellipse id="Ellipse_1-53" data-name="Ellipse 1" cx="2" cy="2.5" rx="2" ry="2.5" transform="translate(541.862 667.468)" fill="#fff"/>
      <ellipse id="Ellipse_1-54" data-name="Ellipse 1" cx="2" cy="2.5" rx="2" ry="2.5" transform="translate(548.862 667.468)" fill="#fff"/>
      <ellipse id="Ellipse_1-55" data-name="Ellipse 1" cx="2" cy="2.5" rx="2" ry="2.5" transform="translate(555.862 667.468)" fill="#fff"/>
      <circle id="Ellipse_1-56" data-name="Ellipse 1" cx="2" cy="2" r="2" transform="translate(562.862 682.468)" fill="#fff"/>
      <circle id="Ellipse_1-57" data-name="Ellipse 1" cx="2" cy="2" r="2" transform="translate(513.862 698.468)" fill="#fff"/>
      <circle id="Ellipse_1-58" data-name="Ellipse 1" cx="2" cy="2" r="2" transform="translate(520.862 682.468)" fill="#fff"/>
      <circle id="Ellipse_1-59" data-name="Ellipse 1" cx="2" cy="2" r="2" transform="translate(527.862 674.468)" fill="#fff"/>
      <ellipse id="Ellipse_1-60" data-name="Ellipse 1" cx="2" cy="2.5" rx="2" ry="2.5" transform="translate(534.862 688.468)" fill="#fff"/>
      <circle id="Ellipse_1-61" data-name="Ellipse 1" cx="2" cy="2" r="2" transform="translate(541.862 674.468)" fill="#fff"/>
      <circle id="Ellipse_1-62" data-name="Ellipse 1" cx="2" cy="2" r="2" transform="translate(548.862 674.468)" fill="#fff"/>
      <circle id="Ellipse_1-63" data-name="Ellipse 1" cx="2" cy="2" r="2" transform="translate(555.862 682.468)" fill="#fff"/>
      <ellipse id="Ellipse_1-64" data-name="Ellipse 1" cx="2" cy="2.5" rx="2" ry="2.5" transform="translate(562.862 688.468)" fill="#fff"/>
    </g>
  </g>
</svg>
