<svg xmlns="http://www.w3.org/2000/svg" width="54.621" height="46" viewBox="0 0 54.621 46">
  <g id="Logo_SVG" opacity="0.215">
    <path id="Path_1" data-name="Path 1" d="M29.3,63.6s-3.61,5.216-2.806,19.687L20,76.252Z" transform="translate(-20 -52.497)" fill="#fff"/>
    <path id="Path_2" data-name="Path 2" d="M60.924,33.621l9.266,9.257S62.1,53.388,56.026,70.338l-3.338-4.179S51.93,38.436,60.924,33.621Z" transform="translate(-43.23 -31.181)" fill="#fff"/>
    <path id="Path_3" data-name="Path 3" d="M88.827,81s-11.3,11.1-16.537,25.964l3.263,3.9L95.341,87.153Z" transform="translate(-57.178 -64.868)" fill="#fff"/>
    <path id="Path_4" data-name="Path 4" d="M129.51,76.214l18.334-1.954,4.638,5.664-16.458,2.436Z" transform="translate(-97.862 -60.076)" fill="#aaa"/>
    <path id="Path_5" data-name="Path 5" d="M103.056,96.259l16.464-2.4L99.27,116.734l-16.12,3.139Z" transform="translate(-64.9 -74.012)" fill="#ccc"/>
    <path id="Path_6" data-name="Path 6" d="M81.12,27.619l19.074-2.439,7.832,9.488L90.38,36.882Z" transform="translate(-63.456 -25.18)" fill="#aaa"/>
  </g>
</svg>
