<svg xmlns="http://www.w3.org/2000/svg" width="171.54" height="161.837" viewBox="0 0 171.54 161.837">
  <g id="Group_13" data-name="Group 13" transform="matrix(0.839, -0.545, 0.545, 0.839, -1041.505, -249.416)" opacity="0.197">
    <circle id="Ellipse_2" data-name="Ellipse 2" cx="2.5" cy="2.5" r="2.5" transform="translate(697 839)" fill="#fff"/>
    <circle id="Ellipse_2-2" data-name="Ellipse 2" cx="2.5" cy="2.5" r="2.5" transform="translate(708 839)" fill="#fff"/>
    <circle id="Ellipse_2-3" data-name="Ellipse 2" cx="2.5" cy="2.5" r="2.5" transform="translate(719 839)" fill="#fff"/>
    <circle id="Ellipse_2-4" data-name="Ellipse 2" cx="2.5" cy="2.5" r="2.5" transform="translate(730 839)" fill="#fff"/>
    <circle id="Ellipse_2-5" data-name="Ellipse 2" cx="2.5" cy="2.5" r="2.5" transform="translate(741 839)" fill="#fff"/>
    <circle id="Ellipse_2-6" data-name="Ellipse 2" cx="2.5" cy="2.5" r="2.5" transform="translate(752 839)" fill="#fff"/>
    <circle id="Ellipse_2-7" data-name="Ellipse 2" cx="2.5" cy="2.5" r="2.5" transform="translate(763 839)" fill="#fff"/>
    <circle id="Ellipse_2-8" data-name="Ellipse 2" cx="2.5" cy="2.5" r="2.5" transform="translate(774 839)" fill="#fff"/>
    <circle id="Ellipse_2-9" data-name="Ellipse 2" cx="2.5" cy="2.5" r="2.5" transform="translate(785 839)" fill="#fff"/>
    <circle id="Ellipse_2-10" data-name="Ellipse 2" cx="2.5" cy="2.5" r="2.5" transform="translate(796 839)" fill="#fff"/>
    <circle id="Ellipse_2-11" data-name="Ellipse 2" cx="2.5" cy="2.5" r="2.5" transform="translate(807 839)" fill="#fff"/>
    <circle id="Ellipse_2-12" data-name="Ellipse 2" cx="2.5" cy="2.5" r="2.5" transform="translate(818 839)" fill="#fff"/>
    <circle id="Ellipse_2-13" data-name="Ellipse 2" cx="2.5" cy="2.5" r="2.5" transform="translate(829 839)" fill="#fff"/>
    <circle id="Ellipse_2-14" data-name="Ellipse 2" cx="2.5" cy="2.5" r="2.5" transform="translate(697 850)" fill="#fff"/>
    <circle id="Ellipse_2-15" data-name="Ellipse 2" cx="2.5" cy="2.5" r="2.5" transform="translate(708 850)" fill="#fff"/>
    <circle id="Ellipse_2-16" data-name="Ellipse 2" cx="2.5" cy="2.5" r="2.5" transform="translate(719 850)" fill="#fff"/>
    <circle id="Ellipse_2-17" data-name="Ellipse 2" cx="2.5" cy="2.5" r="2.5" transform="translate(730 850)" fill="#fff"/>
    <circle id="Ellipse_2-18" data-name="Ellipse 2" cx="2.5" cy="2.5" r="2.5" transform="translate(741 850)" fill="#fff"/>
    <circle id="Ellipse_2-19" data-name="Ellipse 2" cx="2.5" cy="2.5" r="2.5" transform="translate(752 850)" fill="#fff"/>
    <circle id="Ellipse_2-20" data-name="Ellipse 2" cx="2.5" cy="2.5" r="2.5" transform="translate(763 850)" fill="#fff"/>
    <circle id="Ellipse_2-21" data-name="Ellipse 2" cx="2.5" cy="2.5" r="2.5" transform="translate(774 850)" fill="#fff"/>
    <circle id="Ellipse_2-22" data-name="Ellipse 2" cx="2.5" cy="2.5" r="2.5" transform="translate(785 850)" fill="#fff"/>
    <circle id="Ellipse_2-23" data-name="Ellipse 2" cx="2.5" cy="2.5" r="2.5" transform="translate(796 850)" fill="#fff"/>
    <circle id="Ellipse_2-24" data-name="Ellipse 2" cx="2.5" cy="2.5" r="2.5" transform="translate(807 850)" fill="#fff"/>
    <circle id="Ellipse_2-25" data-name="Ellipse 2" cx="2.5" cy="2.5" r="2.5" transform="translate(818 850)" fill="#fff"/>
    <circle id="Ellipse_2-26" data-name="Ellipse 2" cx="2.5" cy="2.5" r="2.5" transform="translate(829 850)" fill="#fff"/>
    <circle id="Ellipse_2-27" data-name="Ellipse 2" cx="2.5" cy="2.5" r="2.5" transform="translate(697 861)" fill="#fff"/>
    <circle id="Ellipse_2-28" data-name="Ellipse 2" cx="2.5" cy="2.5" r="2.5" transform="translate(708 861)" fill="#fff"/>
    <circle id="Ellipse_2-29" data-name="Ellipse 2" cx="2.5" cy="2.5" r="2.5" transform="translate(719 861)" fill="#fff"/>
    <circle id="Ellipse_2-30" data-name="Ellipse 2" cx="2.5" cy="2.5" r="2.5" transform="translate(730 861)" fill="#fff"/>
    <circle id="Ellipse_2-31" data-name="Ellipse 2" cx="2.5" cy="2.5" r="2.5" transform="translate(741 861)" fill="#fff"/>
    <circle id="Ellipse_2-32" data-name="Ellipse 2" cx="2.5" cy="2.5" r="2.5" transform="translate(752 861)" fill="#fff"/>
    <circle id="Ellipse_2-33" data-name="Ellipse 2" cx="2.5" cy="2.5" r="2.5" transform="translate(763 861)" fill="#fff"/>
    <circle id="Ellipse_2-34" data-name="Ellipse 2" cx="2.5" cy="2.5" r="2.5" transform="translate(774 861)" fill="#fff"/>
    <circle id="Ellipse_2-35" data-name="Ellipse 2" cx="2.5" cy="2.5" r="2.5" transform="translate(785 861)" fill="#fff"/>
    <circle id="Ellipse_2-36" data-name="Ellipse 2" cx="2.5" cy="2.5" r="2.5" transform="translate(796 861)" fill="#fff"/>
    <circle id="Ellipse_2-37" data-name="Ellipse 2" cx="2.5" cy="2.5" r="2.5" transform="translate(807 861)" fill="#fff"/>
    <circle id="Ellipse_2-38" data-name="Ellipse 2" cx="2.5" cy="2.5" r="2.5" transform="translate(818 861)" fill="#fff"/>
    <circle id="Ellipse_2-39" data-name="Ellipse 2" cx="2.5" cy="2.5" r="2.5" transform="translate(829 861)" fill="#fff"/>
    <circle id="Ellipse_2-40" data-name="Ellipse 2" cx="2.5" cy="2.5" r="2.5" transform="translate(697 872)" fill="#fff"/>
    <circle id="Ellipse_2-41" data-name="Ellipse 2" cx="2.5" cy="2.5" r="2.5" transform="translate(708 872)" fill="#fff"/>
    <circle id="Ellipse_2-42" data-name="Ellipse 2" cx="2.5" cy="2.5" r="2.5" transform="translate(719 872)" fill="#fff"/>
    <circle id="Ellipse_2-43" data-name="Ellipse 2" cx="2.5" cy="2.5" r="2.5" transform="translate(730 872)" fill="#fff"/>
    <circle id="Ellipse_2-44" data-name="Ellipse 2" cx="2.5" cy="2.5" r="2.5" transform="translate(741 872)" fill="#fff"/>
    <circle id="Ellipse_2-45" data-name="Ellipse 2" cx="2.5" cy="2.5" r="2.5" transform="translate(752 872)" fill="#fff"/>
    <circle id="Ellipse_2-46" data-name="Ellipse 2" cx="2.5" cy="2.5" r="2.5" transform="translate(763 872)" fill="#fff"/>
    <circle id="Ellipse_2-47" data-name="Ellipse 2" cx="2.5" cy="2.5" r="2.5" transform="translate(774 872)" fill="#fff"/>
    <circle id="Ellipse_2-48" data-name="Ellipse 2" cx="2.5" cy="2.5" r="2.5" transform="translate(785 872)" fill="#fff"/>
    <circle id="Ellipse_2-49" data-name="Ellipse 2" cx="2.5" cy="2.5" r="2.5" transform="translate(796 872)" fill="#fff"/>
    <circle id="Ellipse_2-50" data-name="Ellipse 2" cx="2.5" cy="2.5" r="2.5" transform="translate(807 872)" fill="#fff"/>
    <circle id="Ellipse_2-51" data-name="Ellipse 2" cx="2.5" cy="2.5" r="2.5" transform="translate(818 872)" fill="#fff"/>
    <circle id="Ellipse_2-52" data-name="Ellipse 2" cx="2.5" cy="2.5" r="2.5" transform="translate(829 872)" fill="#fff"/>
    <circle id="Ellipse_2-53" data-name="Ellipse 2" cx="2.5" cy="2.5" r="2.5" transform="translate(697 883)" fill="#fff"/>
    <circle id="Ellipse_2-54" data-name="Ellipse 2" cx="2.5" cy="2.5" r="2.5" transform="translate(708 883)" fill="#fff"/>
    <circle id="Ellipse_2-55" data-name="Ellipse 2" cx="2.5" cy="2.5" r="2.5" transform="translate(719 883)" fill="#fff"/>
    <circle id="Ellipse_2-56" data-name="Ellipse 2" cx="2.5" cy="2.5" r="2.5" transform="translate(730 883)" fill="#fff"/>
    <circle id="Ellipse_2-57" data-name="Ellipse 2" cx="2.5" cy="2.5" r="2.5" transform="translate(741 883)" fill="#fff"/>
    <circle id="Ellipse_2-58" data-name="Ellipse 2" cx="2.5" cy="2.5" r="2.5" transform="translate(752 883)" fill="#fff"/>
    <circle id="Ellipse_2-59" data-name="Ellipse 2" cx="2.5" cy="2.5" r="2.5" transform="translate(763 883)" fill="#fff"/>
    <circle id="Ellipse_2-60" data-name="Ellipse 2" cx="2.5" cy="2.5" r="2.5" transform="translate(774 883)" fill="#fff"/>
    <circle id="Ellipse_2-61" data-name="Ellipse 2" cx="2.5" cy="2.5" r="2.5" transform="translate(785 883)" fill="#fff"/>
    <circle id="Ellipse_2-62" data-name="Ellipse 2" cx="2.5" cy="2.5" r="2.5" transform="translate(796 883)" fill="#fff"/>
    <circle id="Ellipse_2-63" data-name="Ellipse 2" cx="2.5" cy="2.5" r="2.5" transform="translate(807 883)" fill="#fff"/>
    <circle id="Ellipse_2-64" data-name="Ellipse 2" cx="2.5" cy="2.5" r="2.5" transform="translate(818 883)" fill="#fff"/>
    <circle id="Ellipse_2-65" data-name="Ellipse 2" cx="2.5" cy="2.5" r="2.5" transform="translate(829 883)" fill="#fff"/>
    <circle id="Ellipse_2-66" data-name="Ellipse 2" cx="2.5" cy="2.5" r="2.5" transform="translate(697 894)" fill="#fff"/>
    <circle id="Ellipse_2-67" data-name="Ellipse 2" cx="2.5" cy="2.5" r="2.5" transform="translate(708 894)" fill="#fff"/>
    <circle id="Ellipse_2-68" data-name="Ellipse 2" cx="2.5" cy="2.5" r="2.5" transform="translate(719 894)" fill="#fff"/>
    <circle id="Ellipse_2-69" data-name="Ellipse 2" cx="2.5" cy="2.5" r="2.5" transform="translate(730 894)" fill="#fff"/>
    <circle id="Ellipse_2-70" data-name="Ellipse 2" cx="2.5" cy="2.5" r="2.5" transform="translate(741 894)" fill="#fff"/>
    <circle id="Ellipse_2-71" data-name="Ellipse 2" cx="2.5" cy="2.5" r="2.5" transform="translate(752 894)" fill="#fff"/>
    <circle id="Ellipse_2-72" data-name="Ellipse 2" cx="2.5" cy="2.5" r="2.5" transform="translate(763 894)" fill="#fff"/>
    <circle id="Ellipse_2-73" data-name="Ellipse 2" cx="2.5" cy="2.5" r="2.5" transform="translate(774 894)" fill="#fff"/>
    <circle id="Ellipse_2-74" data-name="Ellipse 2" cx="2.5" cy="2.5" r="2.5" transform="translate(785 894)" fill="#fff"/>
    <circle id="Ellipse_2-75" data-name="Ellipse 2" cx="2.5" cy="2.5" r="2.5" transform="translate(796 894)" fill="#fff"/>
    <circle id="Ellipse_2-76" data-name="Ellipse 2" cx="2.5" cy="2.5" r="2.5" transform="translate(807 894)" fill="#fff"/>
    <circle id="Ellipse_2-77" data-name="Ellipse 2" cx="2.5" cy="2.5" r="2.5" transform="translate(818 894)" fill="#fff"/>
    <circle id="Ellipse_2-78" data-name="Ellipse 2" cx="2.5" cy="2.5" r="2.5" transform="translate(829 894)" fill="#fff"/>
    <circle id="Ellipse_2-79" data-name="Ellipse 2" cx="2.5" cy="2.5" r="2.5" transform="translate(697 905)" fill="#fff"/>
    <circle id="Ellipse_2-80" data-name="Ellipse 2" cx="2.5" cy="2.5" r="2.5" transform="translate(708 905)" fill="#fff"/>
    <circle id="Ellipse_2-81" data-name="Ellipse 2" cx="2.5" cy="2.5" r="2.5" transform="translate(719 905)" fill="#fff"/>
    <circle id="Ellipse_2-82" data-name="Ellipse 2" cx="2.5" cy="2.5" r="2.5" transform="translate(730 905)" fill="#fff"/>
    <circle id="Ellipse_2-83" data-name="Ellipse 2" cx="2.5" cy="2.5" r="2.5" transform="translate(741 905)" fill="#fff"/>
    <circle id="Ellipse_2-84" data-name="Ellipse 2" cx="2.5" cy="2.5" r="2.5" transform="translate(752 905)" fill="#fff"/>
    <circle id="Ellipse_2-85" data-name="Ellipse 2" cx="2.5" cy="2.5" r="2.5" transform="translate(763 905)" fill="#fff"/>
    <circle id="Ellipse_2-86" data-name="Ellipse 2" cx="2.5" cy="2.5" r="2.5" transform="translate(774 905)" fill="#fff"/>
    <circle id="Ellipse_2-87" data-name="Ellipse 2" cx="2.5" cy="2.5" r="2.5" transform="translate(785 905)" fill="#fff"/>
    <circle id="Ellipse_2-88" data-name="Ellipse 2" cx="2.5" cy="2.5" r="2.5" transform="translate(796 905)" fill="#fff"/>
    <circle id="Ellipse_2-89" data-name="Ellipse 2" cx="2.5" cy="2.5" r="2.5" transform="translate(807 905)" fill="#fff"/>
    <circle id="Ellipse_2-90" data-name="Ellipse 2" cx="2.5" cy="2.5" r="2.5" transform="translate(818 905)" fill="#fff"/>
    <circle id="Ellipse_2-91" data-name="Ellipse 2" cx="2.5" cy="2.5" r="2.5" transform="translate(829 905)" fill="#fff"/>
    <circle id="Ellipse_2-92" data-name="Ellipse 2" cx="2.5" cy="2.5" r="2.5" transform="translate(697 916)" fill="#fff"/>
    <circle id="Ellipse_2-93" data-name="Ellipse 2" cx="2.5" cy="2.5" r="2.5" transform="translate(708 916)" fill="#fff"/>
    <circle id="Ellipse_2-94" data-name="Ellipse 2" cx="2.5" cy="2.5" r="2.5" transform="translate(719 916)" fill="#fff"/>
    <circle id="Ellipse_2-95" data-name="Ellipse 2" cx="2.5" cy="2.5" r="2.5" transform="translate(730 916)" fill="#fff"/>
    <circle id="Ellipse_2-96" data-name="Ellipse 2" cx="2.5" cy="2.5" r="2.5" transform="translate(741 916)" fill="#fff"/>
    <circle id="Ellipse_2-97" data-name="Ellipse 2" cx="2.5" cy="2.5" r="2.5" transform="translate(752 916)" fill="#fff"/>
    <circle id="Ellipse_2-98" data-name="Ellipse 2" cx="2.5" cy="2.5" r="2.5" transform="translate(763 916)" fill="#fff"/>
    <circle id="Ellipse_2-99" data-name="Ellipse 2" cx="2.5" cy="2.5" r="2.5" transform="translate(774 916)" fill="#fff"/>
    <circle id="Ellipse_2-100" data-name="Ellipse 2" cx="2.5" cy="2.5" r="2.5" transform="translate(785 916)" fill="#fff"/>
    <circle id="Ellipse_2-101" data-name="Ellipse 2" cx="2.5" cy="2.5" r="2.5" transform="translate(796 916)" fill="#fff"/>
    <circle id="Ellipse_2-102" data-name="Ellipse 2" cx="2.5" cy="2.5" r="2.5" transform="translate(807 916)" fill="#fff"/>
    <circle id="Ellipse_2-103" data-name="Ellipse 2" cx="2.5" cy="2.5" r="2.5" transform="translate(818 916)" fill="#fff"/>
    <circle id="Ellipse_2-104" data-name="Ellipse 2" cx="2.5" cy="2.5" r="2.5" transform="translate(829 916)" fill="#fff"/>
    <circle id="Ellipse_2-105" data-name="Ellipse 2" cx="2.5" cy="2.5" r="2.5" transform="translate(697 927)" fill="#fff" opacity="0.399"/>
    <circle id="Ellipse_2-106" data-name="Ellipse 2" cx="2.5" cy="2.5" r="2.5" transform="translate(708 927)" fill="#fff" opacity="0.399"/>
    <circle id="Ellipse_2-107" data-name="Ellipse 2" cx="2.5" cy="2.5" r="2.5" transform="translate(719 927)" fill="#fff" opacity="0.399"/>
    <circle id="Ellipse_2-108" data-name="Ellipse 2" cx="2.5" cy="2.5" r="2.5" transform="translate(730 927)" fill="#fff" opacity="0.399"/>
    <circle id="Ellipse_2-109" data-name="Ellipse 2" cx="2.5" cy="2.5" r="2.5" transform="translate(741 927)" fill="#fff" opacity="0.399"/>
    <circle id="Ellipse_2-110" data-name="Ellipse 2" cx="2.5" cy="2.5" r="2.5" transform="translate(752 927)" fill="#fff" opacity="0.399"/>
    <circle id="Ellipse_2-111" data-name="Ellipse 2" cx="2.5" cy="2.5" r="2.5" transform="translate(763 927)" fill="#fff" opacity="0.399"/>
    <circle id="Ellipse_2-112" data-name="Ellipse 2" cx="2.5" cy="2.5" r="2.5" transform="translate(774 927)" fill="#fff" opacity="0.399"/>
    <circle id="Ellipse_2-113" data-name="Ellipse 2" cx="2.5" cy="2.5" r="2.5" transform="translate(785 927)" fill="#fff" opacity="0.399"/>
    <circle id="Ellipse_2-114" data-name="Ellipse 2" cx="2.5" cy="2.5" r="2.5" transform="translate(796 927)" fill="#fff"/>
    <circle id="Ellipse_2-115" data-name="Ellipse 2" cx="2.5" cy="2.5" r="2.5" transform="translate(807 927)" fill="#fff"/>
    <circle id="Ellipse_2-116" data-name="Ellipse 2" cx="2.5" cy="2.5" r="2.5" transform="translate(818 927)" fill="#fff"/>
    <circle id="Ellipse_2-117" data-name="Ellipse 2" cx="2.5" cy="2.5" r="2.5" transform="translate(829 927)" fill="#fff"/>
    <circle id="Ellipse_2-118" data-name="Ellipse 2" cx="2.5" cy="2.5" r="2.5" transform="translate(697 938)" fill="#fff"/>
    <circle id="Ellipse_2-119" data-name="Ellipse 2" cx="2.5" cy="2.5" r="2.5" transform="translate(708 938)" fill="#fff"/>
    <circle id="Ellipse_2-120" data-name="Ellipse 2" cx="2.5" cy="2.5" r="2.5" transform="translate(719 938)" fill="#fff"/>
    <circle id="Ellipse_2-121" data-name="Ellipse 2" cx="2.5" cy="2.5" r="2.5" transform="translate(730 938)" fill="#fff"/>
    <circle id="Ellipse_2-122" data-name="Ellipse 2" cx="2.5" cy="2.5" r="2.5" transform="translate(741 938)" fill="#fff"/>
    <circle id="Ellipse_2-123" data-name="Ellipse 2" cx="2.5" cy="2.5" r="2.5" transform="translate(752 938)" fill="#fff"/>
    <circle id="Ellipse_2-124" data-name="Ellipse 2" cx="2.5" cy="2.5" r="2.5" transform="translate(763 938)" fill="#fff"/>
    <circle id="Ellipse_2-125" data-name="Ellipse 2" cx="2.5" cy="2.5" r="2.5" transform="translate(774 938)" fill="#fff"/>
    <circle id="Ellipse_2-126" data-name="Ellipse 2" cx="2.5" cy="2.5" r="2.5" transform="translate(785 938)" fill="#fff"/>
    <circle id="Ellipse_2-127" data-name="Ellipse 2" cx="2.5" cy="2.5" r="2.5" transform="translate(796 938)" fill="#fff"/>
    <circle id="Ellipse_2-128" data-name="Ellipse 2" cx="2.5" cy="2.5" r="2.5" transform="translate(807 938)" fill="#fff"/>
    <circle id="Ellipse_2-129" data-name="Ellipse 2" cx="2.5" cy="2.5" r="2.5" transform="translate(818 938)" fill="#fff"/>
    <circle id="Ellipse_2-130" data-name="Ellipse 2" cx="2.5" cy="2.5" r="2.5" transform="translate(829 938)" fill="#fff"/>
  </g>
</svg>
