<svg id="Camada_1" data-name="Camada 1" xmlns="http://www.w3.org/2000/svg" viewBox="0 0 227 217"><defs><style>.cls-1{fill:#2b2b2b;}.cls-2{fill:#565656;}.cls-3{fill:#7e7e7e;}</style></defs><path class="cls-1" d="M52.19,63.6S39.7,81.65,42.48,131.72L20,107.38Z"/><path class="cls-1" d="M81.12,33.62l32,32.05s-27.83,36.35-48.84,95L52.73,146.21S50,50.28,81.12,33.62Z"/><path class="cls-1" d="M129.51,81S90.4,119.41,72.29,170.84l11.29,13.51,68.47-82.06Z"/><polygon class="cls-2" points="129.51 81.02 192.95 74.26 209 93.86 152.05 102.29 129.51 81.02"/><polygon class="cls-3" points="152.03 102.16 209 93.86 138.93 173.01 83.15 183.87 152.03 102.16"/><polygon class="cls-2" points="81.12 33.62 147.12 25.18 174.22 58.01 113.16 65.67 81.12 33.62"/></svg>